<?xml version="1.0" encoding="utf-8"?>
<!-- Generator: Adobe Illustrator 24.0.2, SVG Export Plug-In . SVG Version: 6.00 Build 0)  -->
<svg version="1.1" id="Слой_1" xmlns="http://www.w3.org/2000/svg" xmlns:xlink="http://www.w3.org/1999/xlink" x="0px" y="0px"
	 viewBox="0 0 326.1999207 403.3999939" style="enable-background:new 0 0 326.1999207 403.3999939;" xml:space="preserve">
<style type="text/css">
	.st0{fill:#FFFFFF;}
</style>
<g>
	<path class="st0" d="M163.0999451,0c-72.5,0-131.2999878,58.7999954-131.2999878,131.3000183S90.5999451,262.5,163.0999451,262.5
		s131.2999878-58.7999878,131.2999878-131.3000183C294.3999329,58.7999954,235.5999451,0,163.0999451,0z M151.0999451,186.1000061
		c0,4.5-3.5999756,8.1000061-8.0999756,8.1000061s-8.1000061-3.6000061-8.1000061-8.1000061v-40.7000122
		c0-4.5,3.6000061-8.1000061,8.1000061-8.1000061s8.0999756,3.6000061,8.0999756,8.1000061V186.1000061z M142.8999329,127.9000015
		c-5.2999878,0-9.6000061-4.3000031-9.6000061-9.6000061s4.3000183-9.6000061,9.6000061-9.6000061
		s9.5999756,4.3000031,9.5999756,9.6000061C152.4999695,123.5999985,148.1999207,127.9000015,142.8999329,127.9000015z
		 M197.1999207,178c4.5,0,8.0999756,3.6000061,8.0999756,8.1000061s-3.5999756,8.1000061-8.0999756,8.1000061
		c-19.4000244,0-35.2999878-15.8000183-35.2999878-35.3000183v-40.6999893c0-10.5-8.5-19-19-19
		c-4.5,0-8.1000061-3.6000061-8.1000061-8.1000061s3.6000061-8.1000061,8.1000061-8.1000061
		c19.4000244,0,35.2999878,15.8000031,35.2999878,35.3000031v18.9999924h19c4.5,0,8.0999756,3.6000061,8.0999756,8.1000061
		S201.6999207,153.5,197.1999207,153.5h-19v5.3999939C178.1999207,169.5,186.6999207,178,197.1999207,178z M197.1999207,126.4000015
		c-4.5,0-8.0999756-3.6000061-8.0999756-8.1000061c0-25.3999939-20.7000122-46.0999908-46.0999756-46.0999908
		c-4.5,0-8.1000061-3.5999985-8.1000061-8.0999985s3.6000061-8.0999985,8.1000061-8.0999985
		c34.4000244,0,62.4000244,28,62.4000244,62.4000092C205.2999573,122.7999954,201.6999207,126.4000015,197.1999207,126.4000015z"/>
	<g>
		<path class="st0" d="M58.499939,296.3000183h-8.3999939v26.7999878h-6.8999939c-2,0-3.6000061-0.7000122-4.7999878-2.1000061
			c-1.2999878-1.3999939-1.8999939-3-1.8999939-4.8999939v-19.7999878h-8.3999939v20
			c0,3.3999939,0.8999939,6.3999939,2.6000061,8.7999878s3.7999878,4.1000061,6,4.8999939
			c0.7999878,0.3999939,1.3999939,0.6000061,1.7999878,0.7999878c0.3999939,0.1000061,0.8999939,0.2000122,1.6000061,0.2999878
			l3.2999878,0.2000122h15v-34.9999695H58.499939z"/>
		<polygon class="st0" points="72.999939,317.6000061 86.499939,317.6000061 86.499939,331.2000122 94.8999329,331.2000122 
			94.8999329,296.3000183 86.499939,296.3000183 86.499939,309.5 72.999939,309.5 72.999939,296.3000183 64.5999451,296.3000183 
			64.5999451,331.2000122 72.999939,331.2000122 		"/>
		<path class="st0" d="M125.7999573,329.3000183l0.6000061-0.2999878v17.5999756h8.3999939V329l0.6000061,0.2999878
			c3.0000305,1.7000122,6.3999939,2.5,10.1000061,2.5l0,0c4.0999756-0.3999939,7.4000244-1.6000061,9.7999878-3.5
			c2.5-2,4.2000122-4.3999939,5.2000122-7.1000061c0.4000244-1.2000122,0.7999878-2.5,1.0999756-4l0.2999878-3.7999878
			c0-2.6000061-0.5999756-5.2999878-1.9000244-8c-1.2999878-2.7999878-3.2999878-5.2000122-6.0999756-7.1000061
			s-6.2000122-2.8999939-10.0999756-2.8999939c-2.7999878,0-5.5,0.6000061-8,1.8999939
			c-1.2000122,0.6000061-2.3999939,1.3999939-3.5,2.5c-0.5,0.5-1.1000061,1.2000122-1.8999939,2.1000061
			c-0.5-0.7999878-1.1000061-1.3999939-1.7000122-2c-1-1-2.1000061-1.8999939-3.3999939-2.6000061
			c-2.6000061-1.2000122-5.2999878-1.8999939-8-1.8999939c-3.7999878,0-7.2000122,0.8999939-10,2.7999878
			s-4.8999939,4.2000122-6.2000122,7c-1.2999878,2.7000122-1.8999939,5.5-1.8999939,8.1000061
			c0,1.5,0.1000061,2.6000061,0.2000122,3.6000061c0.1000061,0.8999939,0.2999878,1.6000061,0.3999939,2.2000122
			s0.3999939,1.3999939,0.7999878,2.2000122c1,2.6000061,2.7999878,4.8999939,5.2999878,7.1000061
			c2.2999878,1.7999878,5.6000061,2.8999939,9.8999939,3.3999939c1.7999878,0,3.6000061-0.2000122,5.2000122-0.6000061
			C122.499939,330.8999939,124.0999451,330.2000122,125.7999573,329.3000183z M126.2999573,320l-5.1000061,2.6000061
			L118.8999634,323.5l-2.5,0.2999878c-2.7000122,0-4.7999878-0.8999939-6.3999939-2.8999939c-1.7000122-2-2.5-4.5-2.5-7.5
			s0.8999939-5.2999878,2.8999939-7.2000122c2-1.8999939,4.2000122-2.7999878,6.7000122-2.7999878
			c1.6000061,0,3,0.3999939,4.3999939,1.2000122c1.2999878,0.7000122,2.3999939,2,3.3999939,3.7999878
			c1,1.7000122,1.5,3.8999939,1.5,6.6000061v5H126.2999573z M134.6999512,320.2000122v-5.1000061
			c0-2.7000122,0.5-4.8999939,1.3999939-6.7000122c0.9000244-1.7000122,2.0999756-3,3.5-3.7999878
			c0.7999878-0.3999939,1.4000244-0.7000122,1.9000244-0.8999939l2.4000244-0.2999878
			c2.5,0,4.7000122,0.8999939,6.7000122,2.7999878s2.9000244,4.2000122,2.9000244,7.2000122c0,3.1000061-0.7999878,5.5-2.5,7.5
			c-1.5999756,1.8999939-3.7000122,2.8999939-6.2999878,2.8999939l-2.7000122-0.2999878l-2.2000122-0.8999939
			L134.6999512,320.2000122z"/>
		<path class="st0" d="M182.5999451,332.1000061c5,0,9.2999878-1.7999878,12.9000244-5.2999878
			c3.5-3.5,5.2999878-7.8999939,5.2999878-12.8999939s-1.7999878-9.3999939-5.2999878-12.8999939
			s-7.9000244-5.2999878-12.9000244-5.2999878s-9.2999878,1.7999878-12.9000244,5.2999878
			s-5.2999878,7.8999939-5.2999878,12.7999878s1.7999878,9.2999878,5.2999878,12.7999878
			C173.2999573,330.3000183,177.5999451,332.1000061,182.5999451,332.1000061z M182.5999451,303.8999939
			c2.7999878,0,5.2000122,1,7.2000122,3s3,4.2999878,3,7.1000061c0,2.7999878-1,5.2000122-3,7.1000061
			c-2,2-4.4000244,2.8999939-7.2000122,2.8999939s-5.2000122-1-7.2000122-2.8999939c-2-2-3-4.2999878-3-7.1000061
			c0-2.7999878,1-5.1000061,3-7.1000061C177.4999695,304.8000183,179.7999573,303.8999939,182.5999451,303.8999939z"/>
		<path class="st0" d="M213.2999573,329.3000183l0.5999756,0.2999878c1.5999756,0.8999939,3.2999878,1.6000061,4.7999878,1.8999939
			c1.5999756,0.3999939,3.2999878,0.5,5.2999878,0.6000061c4.2000122-0.5,7.5-1.7000122,9.7999878-3.5
			c2.4000244-2.1000061,4.2000122-4.5,5.2000122-7c0.4000244-0.8999939,0.7000122-1.6000061,0.7999878-2.2000122
			s0.2999878-1.2999878,0.4000244-2.2000122c0.2000122-0.8999939,0.2000122-2.1000061,0.2000122-3.5
			c0-2.6000061-0.5999756-5.3999939-1.9000244-8.1000061c-1.2999878-2.7999878-3.4000244-5.1000061-6.2000122-6.8999939
			c-2.7999878-1.8999939-6.2000122-2.7999878-10-2.7999878c-2.7999878,0-5.5,0.7000122-8.0999756,2
			c-2.7000122,1.2999878-4.9000244,3.2999878-6.5,6c-1,1.6000061-1.7000122,3.2999878-2.2000122,4.7999878
			c-0.4000244,1.6000061-0.7000122,3.3999939-0.7000122,5.2999878v32.6000366h8.4000244L213.2999573,329.3000183
			L213.2999573,329.3000183z M213.2999573,320.3999939v-5c0-2.6000061,0.5-4.8999939,1.5-6.6000061
			c1-1.7999878,2.0999756-3.1000061,3.4000244-3.7999878c1.2999878-0.7999878,2.7000122-1.1000061,4.2999878-1.1000061
			c2.5,0,4.7999878,0.8999939,6.7000122,2.7999878c2,1.7999878,2.9000244,4.1000061,2.9000244,7.1000061
			s-0.7999878,5.3999939-2.5,7.3999939c-1.7000122,1.8999939-3.7999878,2.8999939-6.2999878,2.8999939l-2.7000122-0.2999878
			L218.3999939,323L213.2999573,320.3999939z"/>
		<path class="st0" d="M258.5999451,308.2000122l8.5999756,23h8l8.7000122-23l8.5999756,23h9l-12-31.7999878
			c-0.5-1.1000061-1.2000122-2-2.2999878-2.7999878c-1-0.6000061-2.0999756-0.8999939-3.4000244-0.8999939
			c-2.7999878,0-4.7999878,1.5-5.7999878,4.2999878l-6.7000122,18.7000122l-7.2000122-19.2000122
			c-0.5-1.2000122-1.2999878-2.1000061-2.2000122-2.6000061c-1-0.7000122-2.2000122-1.1000061-3.5999756-1.1000061
			c-3,0-5,1.5-5.7999878,4.2000122l-11.7999878,31.3999939h9.0999756L258.5999451,308.2000122z"/>
		<path class="st0" d="M36.499939,356.3000183c-1.7999878-1-3.6000061-1.3999939-5.5-1.3999939
			c-4.3999939,0-7.7000122,1.5-9.7999878,4.6000061c-2.2999878-3.1000061-5.2000122-4.6000061-8.8999939-4.6000061
			c-2.2999878,0-4.3999939,0.5-6.2999878,1.3999939c-2,1.2000122-3.3999939,2.5-4.2999878,4
			c-0.6000061,0.8999939-1,1.7999878-1.2999878,2.6000061C0.1000061,363.7000122,0,364.6000366,0,365.7000122V388h6v-19.7000122
			C6,366,6.3999939,364.0999756,7.2999878,362.6999817s2.5-2.2000122,4.7999878-2.2000122c2,0,3.5,0.6000061,4.5,2
			c1,1.2999878,1.6000061,3.1000061,1.6000061,5.3999939v20.1000061h6.1000061v-20.5c0-1.8999939,0.5-3.5,1.5-4.8999939
			c1.1000061-1.3999939,2.7000122-2.1000061,4.8999939-2.1000061c2.2000122,0,3.6000061,0.7000122,4.5,2.2000122
			c0.8999939,1.3999939,1.3999939,3,1.3999939,4.7999878v20.5h6v-22.3999634c0-1.8999939-0.5-3.7000122-1.6000061-5.3999939
			C39.6999512,358.6000061,38.2999573,357.3000183,36.499939,356.3000183z"/>
		<path class="st0" d="M73.1999512,357.7000122c-2.6000061-1.7000122-5.7999878-2.6000061-9.3999939-2.6000061
			c-2.6000061,0-5.1000061,0.6000061-7.6000061,1.7999878c-2.5,1.2000122-4.5,3.1000061-6,5.6000061c-1,1.5-1.6000061,3-2,4.5
			s-0.6000061,3.2000122-0.6000061,5v31.3999939h6v-30c0-2.7999878,0.5-5.2999878,1.7000122-7.2000122
			c1.1000061-2,2.3999939-3.3999939,3.8999939-4.2999878s3.1000061-1.2999878,4.8999939-1.2999878
			c2.7999878,0,5.3999939,1,7.5,3.1000061c2.2000122,2,3.2999878,4.7000122,3.2999878,8
			c0,3.2000122-0.8999939,6-2.7999878,8.2000122s-4.2999878,3.2999878-7.2999878,3.2999878l-2.7999878-0.2999878
			l-2.3999939-0.8999939l-3.5-1.6000061v6.2000122c1.5,0.8999939,3,1.5,4.5,1.7999878c1.5,0.3999939,3.1000061,0.5,4.8999939,0.5
			c4-0.5,7-1.6000061,9.2000122-3.2000122c2.2999878-2,3.8999939-4.2000122,4.8999939-6.5
			c0.3999939-0.7999878,0.6000061-1.5,0.7999878-2c0.1000061-0.5,0.2999878-1.2000122,0.3999939-2.1000061
			c0.1000061-0.7999878,0.2000122-2,0.2000122-3.2999878c0-2.5-0.6000061-5-1.7999878-7.6000061
			C77.6999512,361.6000061,75.7999573,359.3999939,73.1999512,357.7000122z"/>
		<path class="st0" d="M99.3999329,354.8000183c-5.2999878,0-9.5,1.6000061-12.7000122,4.8999939
			c-2.8999939,3.1000061-4.3999939,7-4.3999939,11.7999878c0,5,1.6000061,9.2000122,4.8999939,12.3999939
			c3.2999878,3.2000122,7,4.7999878,11.2000122,4.7999878c2,0,3.6000061-0.2999878,4.7999878-0.7999878l4.1000061-2.2999878
			v-7.2000122c-2.3999939,3-5.2000122,4.5-8.2999878,4.5c-3,0-5.5-1.1000061-7.6000061-3.3999939s-3-4.8999939-3-8.2000122
			c0-3.8999939,1.2999878-6.8999939,3.8999939-8.7999878c1.8999939-1.3999939,4.1000061-2.2000122,6.7000122-2.2000122
			c3.3999939,0,6,0.7999878,7.8999939,2.5s2.7999878,3.7999878,2.7999878,6.2000122v18.7999878h6.1000061V369.5
			c0-4.2000122-1.5-7.7000122-4.6000061-10.6000061C108.0999451,356.3000183,104.1999512,354.8000183,99.3999329,354.8000183z"/>
		<polygon class="st0" points="142.1999207,368.7000122 126.1999512,368.7000122 126.1999512,355.5 120.2999573,355.5 
			120.2999573,388 126.1999512,388 126.1999512,374.3999939 142.1999207,374.3999939 142.1999207,388 148.1999207,388 
			148.1999207,355.5 142.1999207,355.5 		"/>
		<path class="st0" d="M161.2999573,356.8000183c-2,0.8999939-3.7000122,2.1000061-5.2999878,3.8999939
			c-2.7000122,3.2000122-4.0999756,6.8999939-4.0999756,11.2000122c0,4.1000061,1.4000244,7.7999878,4.2999878,11
			c3.2000122,3.3999939,7.0999756,5.1000061,11.7999878,5.1000061h6v-5.7000122h-4.9000244c-3.2999878,0-6-1.1000061-8-3.3999939
			c-1.7999878-2-2.7999878-4.2999878-2.7999878-6.8999939c0-3.5,1.2000122-6.2999878,3.5-8.2999878
			c2-1.7000122,4.4000244-2.6000061,7.0999756-2.6000061h5.0999756v-5.7000122h-6
			C165.5999451,355.5,163.2999573,355.8999939,161.2999573,356.8000183z"/>
		<path class="st0" d="M191.7999573,354.8000183c-3.9000244,0-7.2999878,1.2999878-10.0999756,3.7999878
			c-2.5,2.3999939-3.7999878,6-3.7999878,10.8999939V388h6v-19.6000061c0-2.2999878,0.7999878-4.1000061,2.2999878-5.7000122
			c1.7000122-1.5,3.5999756-2.2000122,5.5999756-2.2000122c2.2000122,0,4,0.8999939,5.7000122,2.6000061
			c1.5999756,1.7000122,2.4000244,3.5,2.4000244,5.3999939v19.6000061h6v-19.2999878
			c0-3.8999939-1.2999878-7.2999878-4.0999756-10.1000061C199.1999207,356.1000061,195.8999329,354.8000183,191.7999573,354.8000183
			z"/>
		<path class="st0" d="M226.4999695,355c-4.7000122,0-8.7000122,1.6000061-12,5c-3.2999878,3.2999878-5,7.2999878-5,12
			c0,4.6000061,1.7000122,8.6000061,5,12c3.2999878,3.2999878,7.2999878,5,12,5s8.7000122-1.6000061,12-5s5-7.2999878,5-12
			s-1.7000122-8.7000122-5-12C235.1999207,356.6000061,231.1999207,355,226.4999695,355z M234.4999695,379.8999939
			c-2.2999878,2.2000122-4.9000244,3.2999878-8,3.2999878c-3.2000122,0-5.7999878-1.1000061-8-3.2999878
			c-2.2000122-2.2000122-3.2999878-4.7999878-3.2999878-7.8999939s1.0999756-5.7999878,3.2999878-8s4.9000244-3.2999878,8-3.2999878
			c3.2000122,0,5.7999878,1.1000061,8,3.2999878c2.2000122,2.2000122,3.2999878,4.8999939,3.2999878,8
			C237.8999329,375.1000061,236.7999573,377.8000183,234.4999695,379.8999939z"/>
		<path class="st0" d="M272.9999695,357.7000122c-2.5999756-1.7000122-5.7999878-2.6000061-9.4000244-2.6000061
			c-2.5999756,0-5.0999756,0.6000061-7.5999756,1.7999878c-2.5,1.2000122-4.5,3.1000061-6,5.6000061c-1,1.5-1.5999756,3-2,4.5
			s-0.5999756,3.2000122-0.5999756,5v31.3999939h6v-30c0-2.7999878,0.5-5.2999878,1.7000122-7.2000122
			c1.0999756-2,2.4000244-3.3999939,3.9000244-4.2999878s3.0999756-1.2999878,4.9000244-1.2999878
			c2.7999878,0,5.4000244,1,7.5,3.1000061c2.2000122,2,3.2999878,4.7000122,3.2999878,8
			c0,3.2000122-0.9000244,6-2.7999878,8.2000122c-1.9000244,2.2000122-4.2999878,3.2999878-7.2999878,3.2999878
			l-2.7999878-0.2999878l-2.4000244-0.8999939l-3.5-1.6000061v6.2000122c1.5,0.8999939,3,1.5,4.5,1.7999878
			c1.5,0.3999939,3.0999756,0.5,4.9000244,0.5c4-0.5,7-1.6000061,9.2000122-3.2000122
			c2.2999878-2,3.9000244-4.2000122,4.9000244-6.5c0.4000244-0.7999878,0.5999756-1.5,0.7999878-2
			c0.0999756-0.5,0.2999878-1.2000122,0.4000244-2.1000061c0.0999756-0.7999878,0.2000122-2,0.2000122-3.2999878
			c0-2.5-0.5999756-5-1.7999878-7.6000061C277.5999451,361.6000061,275.6999207,359.3999939,272.9999695,357.7000122z"/>
		<path class="st0" d="M324.5999451,360.2000122c-1.0999756-1.7000122-2.5-3-4.2999878-4s-3.5999756-1.3999939-5.5-1.3999939
			c-4.4000244,0-7.7000122,1.5-9.7999878,4.6000061c-2.2999878-3.1000061-5.2000122-4.6000061-8.9000244-4.6000061
			c-2.2999878,0-4.4000244,0.5-6.2999878,1.3999939c-2,1.2000122-3.4000244,2.5-4.2999878,4
			c-0.5999756,0.8999939-1,1.7999878-1.2999878,2.6000061c-0.2999878,0.7999878-0.4000244,1.7000122-0.4000244,2.7999878v22.2999878
			h6v-19.7000122c0-2.2999878,0.4000244-4.2000122,1.2999878-5.6000061c0.9000244-1.3999939,2.5-2.2000122,4.7999878-2.2000122
			c2,0,3.5,0.6000061,4.5,2c1,1.2999878,1.5999756,3.1000061,1.5999756,5.3999939v20.1000061h6.0999756v-20.5
			c0-1.8999939,0.5-3.5,1.5-4.8999939c1.0999756-1.3999939,2.7000122-2.1000061,4.9000244-2.1000061
			s3.7000122,0.7000122,4.5,2.2000122c0.9000244,1.3999939,1.2999878,3,1.2999878,4.7999878v20.5h5.9000244v-22.2999573
			C326.1999207,363.7000122,325.5999451,361.8999939,324.5999451,360.2000122z"/>
	</g>
</g>
</svg>
